<svg width="20" height="20" viewBox="0 0 20 20" fill="none" xmlns="http://www.w3.org/2000/svg">
<path d="M14.167 2.78333C15.4239 3.50905 16.4694 4.55044 17.2002 5.80442C17.9309 7.05839 18.3215 8.48148 18.3332 9.93278C18.3449 11.3841 17.9774 12.8133 17.267 14.0789C16.5566 15.3445 15.528 16.4027 14.283 17.1486C13.038 17.8945 11.6198 18.3024 10.1687 18.3317C8.71768 18.3611 7.28412 18.011 6.00995 17.316C4.73579 16.6211 3.66522 15.6054 2.90421 14.3696C2.14321 13.1338 1.71817 11.7206 1.67116 10.27L1.66699 10L1.67116 9.73C1.71783 8.29082 2.13662 6.8883 2.88669 5.65916C3.63677 4.43002 4.69254 3.41621 5.95107 2.71657C7.2096 2.01693 8.62795 1.65533 10.0678 1.66703C11.5077 1.67873 12.92 2.06333 14.167 2.78333ZM10.0003 5C9.79621 5.00003 9.59921 5.07496 9.44668 5.2106C9.29415 5.34623 9.19671 5.53312 9.17282 5.73583L9.16699 5.83333V10L9.17449 10.1092C9.19349 10.2537 9.2501 10.3908 9.33866 10.5067L9.41116 10.59L11.9112 13.09L11.9895 13.1583C12.1356 13.2717 12.3154 13.3333 12.5003 13.3333C12.6853 13.3333 12.865 13.2717 13.0112 13.1583L13.0895 13.0892L13.1587 13.0108C13.272 12.8647 13.3336 12.685 13.3336 12.5C13.3336 12.315 13.272 12.1353 13.1587 11.9892L13.0895 11.9108L10.8337 9.65417V5.83333L10.8278 5.73583C10.8039 5.53312 10.7065 5.34623 10.554 5.2106C10.4014 5.07496 10.2044 5.00003 10.0003 5Z" fill="white"/>
</svg>
