<svg width="39" height="32" viewBox="0 0 39 32" fill="none" xmlns="http://www.w3.org/2000/svg">
<path d="M0 15.7937C0 15.2104 0.13125 14.6708 0.39375 14.175C0.65625 13.6792 1.02083 13.2708 1.4875 12.95L10.2375 6.69375C10.5583 6.46042 10.8868 6.29242 11.2227 6.18975C11.5588 6.08708 11.9012 6.03633 12.25 6.0375C12.5988 6.03867 12.9418 6.09 13.279 6.1915C13.6162 6.293 13.944 6.46042 14.2625 6.69375L23.0125 12.95C23.4792 13.2708 23.8438 13.6792 24.1062 14.175C24.3687 14.6708 24.5 15.2104 24.5 15.7937V28C24.5 28.9625 24.1576 29.7867 23.4727 30.4727C22.7879 31.1587 21.9637 31.5012 21 31.5H19.25C18.2875 31.5 17.4638 31.1576 16.779 30.4727C16.0942 29.7879 15.7512 28.9637 15.75 28V23.625C15.75 22.8958 15.4951 22.2763 14.9852 21.7665C14.4754 21.2567 13.8553 21.0012 13.125 21H11.375C10.6458 21 10.0263 21.2555 9.5165 21.7665C9.00667 22.2775 8.75117 22.897 8.75 23.625V28C8.75 28.9625 8.40758 29.7867 7.72275 30.4727C7.03792 31.1587 6.21367 31.5012 5.25 31.5H3.5C2.5375 31.5 1.71383 31.1576 1.029 30.4727C0.344167 29.7879 0.00116667 28.9637 0 28V15.7937ZM38.5 3.5V28C38.5 28.9625 38.1576 29.7867 37.4728 30.4727C36.7879 31.1587 35.9637 31.5012 35 31.5H29.75C29.2542 31.5 28.8388 31.332 28.504 30.996C28.1692 30.66 28.0012 30.2447 28 29.75V14.0437C28 13.4604 27.8758 12.9208 27.6273 12.425C27.3788 11.9292 27.0217 11.5208 26.5562 11.2L17.4125 4.6375C17.0333 4.34583 16.7271 3.99583 16.4937 3.5875C16.2604 3.17917 16.1438 2.77083 16.1438 2.3625C16.1438 1.63333 16.3771 1.05758 16.8438 0.63525C17.3104 0.212917 17.9375 0.00116667 18.725 0H35C35.9625 0 36.7868 0.343 37.4728 1.029C38.1587 1.715 38.5012 2.53867 38.5 3.5ZM28.875 10.5H30.625C30.8583 10.5 31.0625 10.4125 31.2375 10.2375C31.4125 10.0625 31.5 9.85833 31.5 9.625V7.875C31.5 7.64167 31.4125 7.4375 31.2375 7.2625C31.0625 7.0875 30.8583 7 30.625 7H28.875C28.6417 7 28.4375 7.0875 28.2625 7.2625C28.0875 7.4375 28 7.64167 28 7.875V9.625C28 9.85833 28.0875 10.0625 28.2625 10.2375C28.4375 10.4125 28.6417 10.5 28.875 10.5ZM28.875 17.5H30.625C30.8583 17.5 31.0625 17.4125 31.2375 17.2375C31.4125 17.0625 31.5 16.8583 31.5 16.625V14.875C31.5 14.6417 31.4125 14.4375 31.2375 14.2625C31.0625 14.0875 30.8583 14 30.625 14H28.875C28.6417 14 28.4375 14.0875 28.2625 14.2625C28.0875 14.4375 28 14.6417 28 14.875V16.625C28 16.8583 28.0875 17.0625 28.2625 17.2375C28.4375 17.4125 28.6417 17.5 28.875 17.5ZM28.875 24.5H30.625C30.8583 24.5 31.0625 24.4125 31.2375 24.2375C31.4125 24.0625 31.5 23.8583 31.5 23.625V21.875C31.5 21.6417 31.4125 21.4375 31.2375 21.2625C31.0625 21.0875 30.8583 21 30.625 21H28.875C28.6417 21 28.4375 21.0875 28.2625 21.2625C28.0875 21.4375 28 21.6417 28 21.875V23.625C28 23.8583 28.0875 24.0625 28.2625 24.2375C28.4375 24.4125 28.6417 24.5 28.875 24.5Z" fill="#2A2F3A"/>
</svg>
