<svg width="20" height="20" viewBox="0 0 20 20" fill="none" xmlns="http://www.w3.org/2000/svg">
<path d="M3.33366 16.6666C2.87533 16.6666 2.4831 16.5035 2.15699 16.1774C1.83088 15.8513 1.66755 15.4588 1.66699 14.9999V4.99992C1.66699 4.54159 1.83033 4.14936 2.15699 3.82325C2.48366 3.49714 2.87588 3.33381 3.33366 3.33325H16.667C17.1253 3.33325 17.5178 3.49659 17.8445 3.82325C18.1712 4.14992 18.3342 4.54214 18.3337 4.99992V14.9999C18.3337 15.4583 18.1706 15.8508 17.8445 16.1774C17.5184 16.5041 17.1259 16.6671 16.667 16.6666H3.33366ZM10.0003 10.8333L16.667 6.66659V4.99992L10.0003 9.16658L3.33366 4.99992V6.66659L10.0003 10.8333Z" fill="#2A2F3A"/>
</svg>
