<svg width="16" height="16" viewBox="0 0 16 16" fill="none" xmlns="http://www.w3.org/2000/svg">
<g clip-path="url(#clip0_23_35)">
<path d="M8 0C5.87875 0 3.8425 0.843375 2.34375 2.34313C0.843465 3.84348 0.000429311 5.87823 0 8C0 10.1209 0.84375 12.1571 2.34375 13.6569C3.8425 15.1566 5.87875 16 8 16C10.1213 16 12.1575 15.1566 13.6562 13.6569C15.1562 12.1571 16 10.1209 16 8C16 5.87913 15.1562 3.84288 13.6562 2.34313C12.1575 0.843375 10.1213 0 8 0Z" fill="url(#paint0_linear_23_35)"/>
<path d="M3.62155 7.9155C5.95405 6.8995 7.50905 6.22967 8.28655 5.906C10.5091 4.98188 10.9703 4.82138 11.2716 4.81594C11.3378 4.81488 11.4853 4.83125 11.5816 4.90906C11.6616 4.97469 11.6841 5.06344 11.6953 5.12575C11.7053 5.188 11.7191 5.32988 11.7078 5.44063C11.5878 6.70563 11.0666 9.77538 10.8016 11.1923C10.6903 11.7918 10.4691 11.9928 10.2553 12.0124C9.7903 12.0551 9.4378 11.7054 8.9878 11.4105C8.28405 10.9489 7.88655 10.6616 7.2028 10.2113C6.4128 9.69075 6.9253 9.40463 7.3753 8.93713C7.4928 8.81475 9.5403 6.95288 9.57905 6.784C9.58405 6.76288 9.58906 6.68413 9.54155 6.64263C9.49531 6.601 9.42656 6.61525 9.37655 6.6265C9.30531 6.6425 8.18155 7.386 6.00155 8.85688C5.6828 9.07613 5.39405 9.183 5.13405 9.17738C4.84905 9.17125 4.29905 9.01588 3.8903 8.88313C3.3903 8.72025 2.99155 8.63413 3.02655 8.3575C3.04405 8.2135 3.2428 8.06613 3.62155 7.9155Z" fill="#5EC4A5"/>
</g>
<defs>
<linearGradient id="paint0_linear_23_35" x1="800" y1="0" x2="800" y2="1600" gradientUnits="userSpaceOnUse">
<stop stop-color="white"/>
<stop offset="1" stop-color="white"/>
</linearGradient>
<clipPath id="clip0_23_35">
<rect width="16" height="16" fill="white"/>
</clipPath>
</defs>
</svg>
