<svg width="152" height="15" viewBox="0 0 152 15" fill="none" xmlns="http://www.w3.org/2000/svg">
<path d="M5.43367 2.033H9.38567V14.554H5.43367V2.033ZM-0.000328101 0.304H14.8197V3.8H-0.000328101V0.304ZM29.2665 6.004V8.854H18.8355V6.004H29.2665ZM21.5145 7.429L20.5835 13.148L18.9875 11.362H29.8935V14.554H16.6505L17.7335 7.429L16.6505 0.304H29.7985V3.496H18.9875L20.5835 1.71L21.5145 7.429ZM41.1595 8.341V5.947L48.1515 14.554H43.3065L38.6895 8.588H40.6275L35.9915 14.554H31.2035L38.2335 5.966V8.322L31.6215 0.304H36.5425L40.7225 5.7H38.7845L42.9075 0.304H47.7525L41.1595 8.341ZM49.8447 14.554V0.304H53.7207V12.483L52.6377 12.236L60.7127 0.304H65.8617V14.554H61.9667V2.147L63.0687 2.394L54.8417 14.554H49.8447ZM69.0993 0.304H73.0323V14.554H69.0993V0.304ZM80.3093 0.304H84.2613V14.554H80.3093V0.304ZM71.3033 5.567H81.9433V9.063H71.3033V5.567ZM97.1523 7.581L97.4753 6.84C98.5773 6.86533 99.483 7.03633 100.192 7.353C100.914 7.657 101.453 8.08767 101.807 8.645C102.162 9.18967 102.339 9.823 102.339 10.545C102.339 11.3177 102.162 12.008 101.807 12.616C101.453 13.2113 100.921 13.6863 100.211 14.041C99.5146 14.383 98.6406 14.554 97.5893 14.554H87.0633L88.1653 7.239L87.0633 0.304H97.2093C98.5266 0.304 99.5526 0.614333 100.287 1.235C101.022 1.843 101.389 2.69167 101.389 3.781C101.389 4.37633 101.25 4.94633 100.971 5.491C100.693 6.03567 100.243 6.498 99.6223 6.878C99.0143 7.24533 98.191 7.47967 97.1523 7.581ZM90.9583 13.642L89.4383 11.799H96.5253C97.0953 11.799 97.5386 11.6597 97.8553 11.381C98.172 11.1023 98.3303 10.716 98.3303 10.222C98.3303 9.728 98.1593 9.33533 97.8173 9.044C97.4753 8.74 96.9686 8.588 96.2973 8.588H90.4453V5.89H95.7653C96.2213 5.89 96.6013 5.757 96.9053 5.491C97.222 5.21233 97.3803 4.83867 97.3803 4.37C97.3803 3.99 97.2473 3.67967 96.9813 3.439C96.7153 3.18567 96.3353 3.059 95.8413 3.059H89.4573L90.9583 1.216L91.9273 7.239L90.9583 13.642ZM117.023 6.004V8.854H106.592V6.004H117.023ZM109.271 7.429L108.34 13.148L106.744 11.362H117.65V14.554H104.407L105.49 7.429L104.407 0.304H117.555V3.496H106.744L108.34 1.71L109.271 7.429ZM136.103 8.588C135.964 9.842 135.533 10.944 134.811 11.894C134.089 12.8313 133.139 13.5597 131.961 14.079C130.796 14.5983 129.453 14.858 127.933 14.858C126.274 14.858 124.823 14.5477 123.582 13.927C122.341 13.3063 121.372 12.4387 120.675 11.324C119.991 10.2093 119.649 8.911 119.649 7.429C119.649 5.947 119.991 4.64867 120.675 3.534C121.372 2.41933 122.341 1.55167 123.582 0.931001C124.823 0.310334 126.274 2.38419e-07 127.933 2.38419e-07C129.453 2.38419e-07 130.796 0.259667 131.961 0.779C133.139 1.29833 134.089 2.033 134.811 2.983C135.533 3.92033 135.964 5.016 136.103 6.27H132.151C132.024 5.662 131.777 5.149 131.41 4.731C131.043 4.30033 130.561 3.971 129.966 3.743C129.383 3.515 128.706 3.401 127.933 3.401C127.046 3.401 126.28 3.56567 125.634 3.895C124.988 4.21167 124.494 4.674 124.152 5.282C123.81 5.87733 123.639 6.593 123.639 7.429C123.639 8.265 123.81 8.987 124.152 9.595C124.494 10.1903 124.988 10.6527 125.634 10.982C126.28 11.2987 127.046 11.457 127.933 11.457C128.706 11.457 129.383 11.3493 129.966 11.134C130.561 10.9187 131.043 10.5957 131.41 10.165C131.777 9.73433 132.024 9.20867 132.151 8.588H136.103ZM142.511 2.033H146.463V14.554H142.511V2.033ZM137.077 0.304H151.897V3.8H137.077V0.304Z" fill="white"/>
</svg>
