<svg width="157" height="157" viewBox="0 0 157 157" fill="none" xmlns="http://www.w3.org/2000/svg">
<path opacity="0.2" fill-rule="evenodd" clip-rule="evenodd" d="M53.6004 45.7498C45.7081 53.6221 40.8637 64.0384 39.9287 75.1464C38.9938 86.2544 42.0289 97.334 48.4943 106.415C54.9597 115.496 64.4363 121.989 75.2388 124.74C86.0412 127.491 97.4693 126.322 107.491 121.439C107.946 122.156 108.488 122.832 109.116 123.465L136.865 151.215C139.092 153.322 142.054 154.478 145.12 154.436C148.186 154.394 151.114 153.158 153.283 150.99C155.452 148.822 156.689 145.894 156.733 142.828C156.776 139.763 155.622 136.801 153.515 134.573L125.765 106.815L125.294 106.367C132.113 96.7395 135.071 84.9037 133.585 73.1998C132.098 61.4959 126.274 50.7757 117.265 43.1583C108.256 35.5409 96.7163 31.5807 84.9281 32.0606C73.14 32.5404 61.9608 37.4254 53.6004 45.7498Z" fill="white"/>
<path fill-rule="evenodd" clip-rule="evenodd" d="M40.679 40.6787C36.6258 44.678 33.4036 49.4396 31.1982 54.6893C28.9927 59.939 27.8474 65.5731 27.8284 71.2672C27.8093 76.9614 28.9168 82.603 31.087 87.8674C33.2573 93.1318 36.4474 97.9148 40.4738 101.941C44.5002 105.968 49.2832 109.158 54.5476 111.328C59.812 113.498 65.4536 114.606 71.1478 114.587C76.8419 114.568 82.476 113.422 87.7257 111.217C92.9754 109.011 97.737 105.789 101.736 101.736C109.744 93.6207 114.216 82.6678 114.178 71.2672C114.14 59.8667 109.594 48.944 101.532 40.8825C93.471 32.8211 82.5483 28.2753 71.1478 28.2371C59.7472 28.1989 48.7943 32.6714 40.679 40.6787ZM96.1864 96.186C92.9206 99.5308 89.0234 102.194 84.7207 104.022C80.418 105.849 75.7954 106.805 71.1207 106.832C66.4461 106.86 61.8124 105.96 57.4883 104.183C53.1642 102.407 49.2357 99.7903 45.9304 96.4845C42.6251 93.1787 40.0089 89.2498 38.2333 84.9254C36.4577 80.601 35.5581 75.9672 35.5866 71.2926C35.6151 66.6179 36.5711 61.9955 38.3993 57.693C40.2275 53.3906 42.8915 49.4939 46.2368 46.2286C52.8616 39.6039 61.8467 35.8821 71.2155 35.8821C80.5844 35.8821 89.5695 39.6039 96.1942 46.2286C102.819 52.8534 106.541 61.8385 106.541 71.2073C106.541 80.5762 102.811 89.5613 96.1864 96.186Z" fill="white"/>
<path d="M94.2004 110.85C92.7705 109.369 91.9793 107.386 91.9972 105.328C92.015 103.27 92.8406 101.301 94.2961 99.8456C95.7515 98.3901 97.7204 97.5645 99.7786 97.5467C101.837 97.5288 103.82 98.32 105.3 99.7499L135.044 129.494C136.474 130.974 137.265 132.957 137.247 135.015C137.229 137.074 136.404 139.042 134.948 140.498C133.493 141.953 131.524 142.779 129.466 142.797C127.408 142.815 125.425 142.023 123.944 140.593L94.2004 110.85ZM56.5754 75.8624C55.5344 75.8624 54.5361 75.4489 53.8 74.7128C53.0639 73.9767 52.6504 72.9784 52.6504 71.9374C52.6504 70.8964 53.0639 69.8981 53.8 69.162C54.5361 68.4259 55.5344 68.0124 56.5754 68.0124H87.9754C89.0164 68.0124 90.0147 68.4259 90.7508 69.162C91.4869 69.8981 91.9004 70.8964 91.9004 71.9374C91.9004 72.9784 91.4869 73.9767 90.7508 74.7128C90.0147 75.4489 89.0164 75.8624 87.9754 75.8624H56.5754Z" fill="white"/>
<path d="M68.3506 56.2374C68.3506 55.1964 68.7641 54.1981 69.5002 53.462C70.2363 52.7259 71.2346 52.3124 72.2756 52.3124C73.3166 52.3124 74.3149 52.7259 75.051 53.462C75.7871 54.1981 76.2006 55.1964 76.2006 56.2374V87.6374C76.2006 88.6783 75.7871 89.6767 75.051 90.4128C74.3149 91.1489 73.3166 91.5624 72.2756 91.5624C71.2346 91.5624 70.2363 91.1489 69.5002 90.4128C68.7641 89.6767 68.3506 88.6783 68.3506 87.6374V56.2374Z" fill="white"/>
</svg>
