<?xml version="1.0" encoding="utf-8"?><svg viewBox="0 0 39 32" xmlns="http://www.w3.org/2000/svg" xmlns:xlink="http://www.w3.org/1999/xlink"><style>:root>svg{display:none}:root>svg:target{display:block}</style><svg viewBox="0 0 20 20" id="clock" xmlns="http://www.w3.org/2000/svg"><path d="M14.167 2.783A8.334 8.334 0 111.671 10.27L1.667 10l.004-.27a8.333 8.333 0 0112.496-6.947zM10 5a.833.833 0 00-.827.736l-.006.097V10l.007.11a.834.834 0 00.165.397l.072.083 2.5 2.5.079.068a.833.833 0 001.021 0l.079-.069.069-.078a.834.834 0 000-1.022l-.07-.078-2.255-2.257v-3.82l-.006-.098A.833.833 0 0010 5z"/></svg><svg viewBox="0 0 24 24" id="download" xmlns="http://www.w3.org/2000/svg"><path d="M16.59 9H15V4c0-.55-.45-1-1-1h-4c-.55 0-1 .45-1 1v5H7.41c-.89 0-1.34 1.08-.71 1.71l4.59 4.59c.39.39 1.02.39 1.41 0l4.59-4.59c.63-.63.19-1.71-.7-1.71zM5 19c0 .55.45 1 1 1h12c.55 0 1-.45 1-1s-.45-1-1-1H6c-.55 0-1 .45-1 1z"/></svg><svg viewBox="0 0 39 32" id="house" xmlns="http://www.w3.org/2000/svg"><path d="M0 15.794a3.406 3.406 0 011.488-2.844l8.75-6.256a3.29 3.29 0 01.985-.504 3.457 3.457 0 011.027-.153c.349.002.692.053 1.029.154.337.102.665.27.983.503l8.75 6.256a3.406 3.406 0 011.488 2.844V28c0 .962-.342 1.787-1.027 2.473A3.364 3.364 0 0121 31.5h-1.75a3.369 3.369 0 01-2.471-1.027A3.377 3.377 0 0115.75 28v-4.375a2.53 2.53 0 00-.765-1.858 2.538 2.538 0 00-1.86-.767h-1.75c-.73 0-1.349.256-1.858.767a2.54 2.54 0 00-.767 1.858V28c0 .962-.342 1.787-1.027 2.473A3.364 3.364 0 015.25 31.5H3.5a3.369 3.369 0 01-2.471-1.027A3.377 3.377 0 010 28V15.794zM38.5 3.5V28c0 .962-.342 1.787-1.027 2.473A3.364 3.364 0 0135 31.5h-5.25c-.496 0-.911-.168-1.246-.504A1.702 1.702 0 0128 29.75V14.044c0-.584-.124-1.123-.373-1.619a3.22 3.22 0 00-1.07-1.225l-9.144-6.562a3.513 3.513 0 01-.92-1.05c-.233-.409-.35-.817-.35-1.226 0-.729.234-1.304.7-1.727C17.31.213 17.939.001 18.726 0H35c.962 0 1.787.343 2.473 1.029.686.686 1.028 1.51 1.027 2.471zm-9.625 7h1.75a.84.84 0 00.613-.262.84.84 0 00.262-.613v-1.75a.84.84 0 00-.262-.612.84.84 0 00-.613-.263h-1.75a.84.84 0 00-.613.263.84.84 0 00-.262.612v1.75a.84.84 0 00.262.613.84.84 0 00.613.262zm0 7h1.75a.84.84 0 00.613-.262.84.84 0 00.262-.613v-1.75a.84.84 0 00-.262-.613.84.84 0 00-.613-.262h-1.75a.84.84 0 00-.613.262.84.84 0 00-.262.613v1.75a.84.84 0 00.262.613.84.84 0 00.613.262zm0 7h1.75a.84.84 0 00.613-.262.84.84 0 00.262-.613v-1.75a.84.84 0 00-.262-.613.84.84 0 00-.613-.262h-1.75a.84.84 0 00-.613.262.84.84 0 00-.262.613v1.75a.84.84 0 00.262.613.84.84 0 00.613.262z"/></svg><svg viewBox="0 0 20 20" id="mail" xmlns="http://www.w3.org/2000/svg"><path d="M3.334 16.667c-.459 0-.85-.164-1.177-.49A1.608 1.608 0 011.667 15V5c0-.458.163-.85.49-1.177.327-.326.719-.49 1.177-.49h13.333c.458 0 .85.164 1.177.49.327.327.49.72.49 1.177v10c0 .458-.163.85-.49 1.177-.326.327-.718.49-1.177.49H3.334zM10 10.833l6.667-4.166V5L10 9.167 3.334 5v1.667L10 10.833z"/></svg><svg viewBox="0 0 16 20" id="map" xmlns="http://www.w3.org/2000/svg"><path d="M8 0C3.59 0 0 3.589 0 7.995-.029 14.44 7.696 19.784 8 20c0 0 8.03-5.56 8-12 0-4.411-3.589-8-8-8zm0 12c-2.21 0-4-1.79-4-4s1.79-4 4-4 4 1.79 4 4-1.79 4-4 4z"/></svg><svg viewBox="0 0 13 13" id="phone" xmlns="http://www.w3.org/2000/svg"><path d="M2.96 5.15l4.608 4.575c.494-.571 3.62-3.922 5.182.655 0 0-.164 2.37-3.537 2.37-2.385 0-4.853-2.86-6.58-4.495C1.151 6.865 0 5.067 0 3.433 0 .083 2.304 0 2.304 0c5.264 1.798.658 5.15.658 5.15"/></svg><svg viewBox="0 0 16 16" id="tg" xmlns="http://www.w3.org/2000/svg"><g clip-path="url(#ga)"><path d="M8 0a7.999 7.999 0 100 15.998A7.999 7.999 0 008 0z"/><path d="M3.622 7.915a389.958 389.958 0 014.665-2.009c2.222-.924 2.683-1.085 2.985-1.09a.528.528 0 01.31.093c.08.066.102.154.113.217.01.062.024.204.013.315-.12 1.265-.641 4.334-.906 5.751-.112.6-.333.8-.547.82-.465.043-.817-.307-1.267-.601-.704-.462-1.101-.75-1.785-1.2-.79-.52-.278-.806.172-1.274.118-.122 2.165-1.984 2.204-2.153.005-.021.01-.1-.037-.141-.047-.042-.115-.028-.165-.016-.072.016-1.195.759-3.375 2.23-.32.22-.608.326-.868.32-.285-.006-.835-.161-1.244-.294-.5-.163-.898-.249-.863-.525.017-.145.216-.292.595-.443z"/></g><defs><linearGradient id="gb" x1="800" y1="0" x2="800" y2="1600" gradientUnits="userSpaceOnUse"><stop stop-color="#fff"/><stop offset="1" stop-color="#fff"/></linearGradient><clipPath id="ga"><path d="M0 0h16v16H0z"/></clipPath></defs></svg></svg>